<svg width="20" height="20" fill="none" xmlns="http://www.w3.org/2000/svg"><path d="M19.37 9.609c-.065-1.305-.094-2.64-.457-3.906-.27-.94-.81-1.807-1.587-2.42-.756-.597-1.65-.966-2.559-1.27a2.896 2.896 0 01-.593-.27c-.276-.194-.528-.42-.8-.62-.379-.277-.785-.513-1.256-.597-.18-.032-.366-.04-.547-.07-.2-.032-.398-.073-.595-.116-.398-.087-.794-.186-1.196-.257a5.015 5.015 0 00-1.268-.07c-.47.038-.935.132-1.392.24-.378.09-.761.19-1.122.332a5.282 5.282 0 00-1.278.746c-.39.301-.76.631-1.128.958-.346.307-.685.623-1.006.957-.672.7-1.265 1.49-1.673 2.368a9.894 9.894 0 00-.805 2.83 10.986 10.986 0 00-.058 2.565 9.18 9.18 0 00.59 2.486c.167.421.372.832.607 1.221l.046.075a.717.717 0 00.114.27 10.89 10.89 0 001.05 1.645c.04.069.08.137.122.203.188.296.443.607.768.77l.096.087c.436.389.934.73 1.465.98a6.782 6.782 0 001.992.564c.701.093 1.413.11 2.12.112.568.001 1.135 0 1.702-.019 1.132-.036 2.276-.152 3.358-.494a6.877 6.877 0 001.583-.73c.55-.347 1.036-.793 1.482-1.26.45-.472.852-.978 1.21-1.521a6.794 6.794 0 00.82-1.744c.207-.667.257-1.37.261-2.064.004-.66-.034-1.322-.066-1.981zM17.957 12.1a5.775 5.775 0 01-.24 1.313 6.37 6.37 0 01-.673 1.324 9.958 9.958 0 01-1.547 1.748 5.874 5.874 0 01-1.059.717 7.148 7.148 0 01-1.522.514c-1.244.248-2.522.253-3.786.255-.411 0-.822-.002-1.233-.022-.626-.04-1.25-.126-1.85-.31a5.23 5.23 0 01-1.041-.504 6.044 6.044 0 01-.784-.643 7.159 7.159 0 01-.284-.29 8.064 8.064 0 01-.269-.325 7.353 7.353 0 01-.099-.184c-.177-.354-.337-.734-.582-1.047a7.41 7.41 0 01-.72-1.098 7.96 7.96 0 01-.608-1.728 9.666 9.666 0 01-.178-2.376c.055-.845.208-1.687.47-2.493a7.47 7.47 0 01.784-1.594c.593-.85 1.348-1.572 2.127-2.254.45-.393.91-.785 1.44-1.067.457-.212.961-.34 1.452-.446a5.911 5.911 0 011.307-.14c.495.04.982.17 1.465.278.267.06.536.12.807.162.215.034.433.042.643.095.122.048.238.109.35.177.496.346.926.786 1.486 1.041.269.123.561.199.839.302.264.098.525.204.78.324.235.11.464.233.684.37.242.168.468.357.671.57.173.204.323.425.45.66.169.349.286.718.374 1.095.137.68.186 1.373.228 2.065.046.768.085 1.537.113 2.306.015.401.023.803.005 1.205z" fill="#fff"/><path d="M8.59 9.59a.997.997 0 00.044 1.194c.275.331.771.457 1.18.314a.871.871 0 00.299-.173c.19-.173.27-.435.291-.689.016-.192-.002-.397-.109-.558-.123-.185-.34-.282-.547-.369l.005-.001c-.387-.195-.906-.063-1.162.283zm.326-2.515c-.067.642.105 1.366.628 1.741 0 0 .21.17 1.01-.56.112-.09.223-.18.336-.262.97-.716 2.288-.986 3.439-.614.679.22 1.371.654 2.052.44a.441.441 0 00.236-.148.477.477 0 00.064-.279c.002-.758-.374-1.479-.888-2.042-.999-1.095-2.595-1.662-4.05-1.334-1.455.328-2.675 1.593-2.827 3.058z" fill="#fff"/><path d="M6.84 8.392c.14.174 1.13.906 1.32.582 0 0 .117-.11.112-1.085a6.212 6.212 0 00-.02-.585c-.11-1.329.489-2.694 1.545-3.525.175-.137.364-.264.487-.447.122-.184.16-.446.02-.616-.17-.204-.488-.181-.75-.127-.866.18-1.72.504-2.394 1.072-.674.568-1.148 1.403-1.141 2.277.005.564.203 1.108.404 1.636.11.287.223.578.417.818zm8.55.271c-.423-.237-.907-.346-1.387-.43-.534-.093-1.084-.157-1.618-.062-.534.096-1.056.37-1.342.825-.091.146-.154.32-.161.492 0 0-.043.294.184.46a.22.22 0 00.086.05.72.72 0 00.237.059c.17.033.421.058.791.048.177.016.38.033.617.05.434.058.868.13 1.277.28.483.18.936.482 1.196.922.379.641.291 1.459.598 2.137.053.118.136.244.266.265.197.031.33-.19.395-.378.29-.83.443-1.726.287-2.59-.155-.865-.651-1.695-1.425-2.128zm-9.292 2.35c.368.056.77.085 1.09-.103.264-.155.416-.513.313-.778 0 0-.014-.201-1.463-1.338 0 0-.677-.511-.852-2.455a5.959 5.959 0 00-.094-.63c-.042-.197-.113-.407-.285-.515-.335-.21-.755.11-.98.433a4.266 4.266 0 00-.757 2.498c.01.546.134 1.103.44 1.558.554.825 1.598 1.18 2.588 1.33z" fill="#fff"/><path d="M9.303 12.997c.109-.29.18-.61.099-.91-.08-.299-.349-.566-.662-.563l.07.04c-.568-.235-1.172.183-1.75.393-1.03.373-2.232.048-3.076-.644-.39-.32-.74-.724-1.227-.866-.096-.028-.205-.044-.292.006-.1.056-.137.18-.155.292-.073.455.03.921.182 1.357.323.924.874 1.77 1.593 2.443.26.244.548.469.88.604.294.119.614.164.932.167 1.469.012 2.895-.96 3.406-2.319zm1.836-1.397a.731.731 0 00-.812.088.712.712 0 00-.229.606l-.034-.135a2.94 2.94 0 01-.2 1.578c-.31.726-.895 1.3-1.495 1.82-.32.277-.682.637-.585 1.047.107.454.702.597 1.169.53.983-.144 1.837-.832 2.298-1.701.46-.869.557-1.896.405-2.865-.058-.374-.183-.783-.517-.968zm1.791-.548c-.185-.086-.38-.17-.584-.157-.204.014-.413.16-.423.361a.36.36 0 00.033.161 4.854 4.854 0 01.377.95c.237 1.032.151 2.142-.049 3.194-.03.157-.062.322-.013.474.098.307.5.434.81.338.311-.096.544-.35.738-.607.447-.592.788-1.28.862-2.015.075-.734-.144-1.517-.678-2.033-.304-.293-.689-.488-1.073-.666z" fill="#fff"/></svg>