<?xml version="1.0" encoding="utf-8"?>
<!-- Generator: Adobe Illustrator 27.6.1, SVG Export Plug-In . SVG Version: 6.00 Build 0)  -->
<svg version="1.1" id="Layer_1" xmlns="http://www.w3.org/2000/svg" xmlns:xlink="http://www.w3.org/1999/xlink" x="0px" y="0px"
	 viewBox="0 0 234 120" style="enable-background:new 0 0 234 120;" xml:space="preserve">
<style type="text/css">
	.st0{fill-rule:evenodd;clip-rule:evenodd;fill:#DFF6E6;fill-opacity:0.85;}
</style>
<path class="st0" d="M52,25.2c4-4.1,10.2-7.6,17.9-10.5l7.7,15.4c0.7,1.5,2.6,2.1,4.1,1.4c1.5-0.7,2.1-2.5,1.4-4l-7.3-14.7
	c12.5-3.7,28.2-5.8,45.1-5.8c16.9,0,32.5,2.1,45.1,5.8l-7.3,14.7c-0.7,1.5-0.1,3.3,1.4,4c1.5,0.7,3.3,0.1,4.1-1.4l7.7-15.4
	c7.8,2.9,13.9,6.4,17.9,10.5c0.8,0.8,1,2.1,0.5,3.2l-7.8,18.5c-14.5-7.4-37.2-11.8-61.6-11.8c-24.4,0-47,4.4-61.6,11.8l-7.8-18.5
	C51,27.2,51.2,26,52,25.2z M173.4,77.5c-0.6-0.3-1.3-0.6-2-0.8V59.9c2.7,0.3,5.3,1,7.8,2c2.3,1,4.4,2.3,6.3,3.7L173.4,77.5z
	 M171.4,96.9c0.7-0.2,1.4-0.5,2-0.8l12.1,11.9c-4,3.1-8.8,5.2-14.1,5.8V96.9z M163.3,96c0.7,0.3,1.3,0.6,2,0.8v16.8
	c-5.3-0.6-10.1-2.6-14.1-5.8L163.3,96z M146.8,69.9l12,11.9c-0.4,0.6-0.6,1.3-0.8,2H141C141.6,78.6,143.7,73.8,146.8,69.9z
	 M165.3,76.8c-0.7,0.2-1.4,0.5-2,0.8l-12.1-11.9c4-3.1,8.8-5.2,14.1-5.8V76.8z M173,86.8c0,2.5-2.1,4.6-4.6,4.6
	c-2.5,0-4.7-2-4.7-4.6c0-2.7,2.3-4.6,4.7-4.6C170.7,82.2,173,84.1,173,86.8z M140.9,89.8h17.1c0.2,0.7,0.5,1.4,0.9,2l-12.1,11.9
	C143.7,99.8,141.5,95,140.9,89.8z M189.8,103.6l-12.1-11.9c0.4-0.6,0.6-1.3,0.8-2h17.1C195.1,95,193,99.8,189.8,103.6z M195.7,83.8
	h-17c-0.2-0.7-0.5-1.4-0.8-2l12-11.8C193,73.9,195.1,78.6,195.7,83.8z M84.7,101.5c0.3-0.1,0.6-0.2,0.9-0.4l8.7,8.5
	c-2.7,2-6,3.4-9.5,3.9V101.5z M77.8,101.2c0.3,0.1,0.6,0.3,0.9,0.4v12.1c-3.5-0.5-6.8-1.9-9.5-3.9L77.8,101.2z M64.8,80.7l8.6,8.5
	c-0.1,0.3-0.3,0.6-0.4,0.8H60.8C61.3,86.6,62.7,83.4,64.8,80.7z M78.6,84.6c-0.3,0.1-0.6,0.2-0.8,0.4l-8.7-8.6
	c2.9-2.1,6.1-3.4,9.5-3.9V84.6z M85.6,85c-0.3-0.1-0.5-0.2-0.8-0.3V72.6c3.5,0.5,6.8,1.9,9.5,3.9L85.6,85z M81.7,96.1
	c-1.6,0-3.1-1.3-3.1-3c0-1.8,1.6-3,3.1-3c1.7,0,3,1.3,3,3C84.7,94.8,83.3,96.1,81.7,96.1z M90.3,90.1c-0.1-0.3-0.2-0.6-0.4-0.8
	l8.6-8.5c1.6,2.1,2.8,4.5,3.5,7.1c0.2,0.7,0.3,1.5,0.4,2.2H90.3z M60.8,96.1h12.3c0.1,0.3,0.2,0.6,0.4,0.9l-8.7,8.5
	C62.7,102.8,61.3,99.6,60.8,96.1z M98.6,105.5l-8.7-8.5c0.1-0.3,0.2-0.6,0.4-0.8h12.3C102,99.6,100.6,102.8,98.6,105.5z M134.8,84.1
	h-27.5c-4.9-11.8-14.7-17.8-25.6-17.8c-4.3,0-9.2,1.2-12.9,3.2l-7.2-17.1C75.2,45.2,97,41,120.8,41c23.8,0,45.6,4.2,59.2,11.4
	l-1.2,2.9c-2.9-0.9-6.8-1.6-10.4-1.6C150.9,53.7,136.2,67,134.8,84.1z M144.5,110.1c0,0,0,0.1,0.1,0.1c0,0,0.1,0,0.1,0.1
	c6.1,6,14.5,9.6,23.7,9.6c9.2,0,17.6-3.7,23.7-9.6c0,0,0.1-0.1,0.1-0.1c0,0,0.1-0.1,0.1-0.1c6-6,9.7-14.2,9.7-23.3
	c0-8.9-3.6-17.2-9.8-23.3c0,0,0-0.1-0.1-0.1c0,0-0.1,0-0.1-0.1c-2.2-2.2-4.8-4.1-7.7-5.6l2.3-5.5v0l9.1-21.6
	c1.4-3.3,0.7-7.1-1.7-9.6C179.7,6.2,146.8,0.9,120.8,0.9C94.9,0.9,62,6.2,47.5,21c-2.5,2.5-3.1,6.3-1.7,9.6L63.7,73
	c-3.3,2.8-6.1,6.6-7.7,11.1h-2.8c-6.8,0-13.6,1.1-20.1,3.2c-9,2.9-22.6,7.3-30.9,10c-1.6,0.5-2.5,2.2-1.9,3.8
	c0.5,1.6,2.2,2.4,3.9,1.9c8.3-2.7,21.9-7.1,30.9-10c5.9-1.9,12-2.9,18.2-2.9h1.4c-0.1,1-0.2,2-0.2,3c0,14.8,12.2,26.8,27.3,26.8
	c7.5,0,14.3-3,19.2-7.8c0,0,0,0,0.1,0c0,0,0-0.1,0.1-0.1c4.9-4.8,7.9-11.5,7.9-18.9c0-1-0.1-2-0.2-3h26.1
	C135.6,97.8,139.2,104.8,144.5,110.1z"/>
</svg>
