<svg version="1.1" id="Layer_1" xmlns="http://www.w3.org/2000/svg" x="0" y="0" viewBox="0 0 234 120" xml:space="preserve"><path d="M52 25.2c4-4.1 10.2-7.6 17.9-10.5l7.7 15.4c.7 1.5 2.6 2.1 4.1 1.4 1.5-.7 2.1-2.5 1.4-4l-7.3-14.7C88.3 9.1 104 7 120.9 7c16.9 0 32.5 2.1 45.1 5.8l-7.3 14.7c-.7 1.5-.1 3.3 1.4 4 1.5.7 3.3.1 4.1-1.4l7.7-15.4c7.8 2.9 13.9 6.4 17.9 10.5.8.8 1 2.1.5 3.2l-7.8 18.5c-14.5-7.4-37.2-11.8-61.6-11.8s-47 4.4-61.6 11.8l-7.8-18.5c-.5-1.2-.3-2.4.5-3.2zm121.4 52.3c-.6-.3-1.3-.6-2-.8V59.9c2.7.3 5.3 1 7.8 2 2.3 1 4.4 2.3 6.3 3.7l-12.1 11.9zm-2 19.4c.7-.2 1.4-.5 2-.8l12.1 11.9c-4 3.1-8.8 5.2-14.1 5.8V96.9zm-8.1-.9c.7.3 1.3.6 2 .8v16.8c-5.3-.6-10.1-2.6-14.1-5.8L163.3 96zm-16.5-26.1l12 11.9c-.4.6-.6 1.3-.8 2h-17c.6-5.2 2.7-10 5.8-13.9zm18.5 6.9c-.7.2-1.4.5-2 .8l-12.1-11.9c4-3.1 8.8-5.2 14.1-5.8v16.9zm7.7 10c0 2.5-2.1 4.6-4.6 4.6-2.5 0-4.7-2-4.7-4.6 0-2.7 2.3-4.6 4.7-4.6 2.3 0 4.6 1.9 4.6 4.6zm-32.1 3H158c.2.7.5 1.4.9 2l-12.1 11.9c-3.1-3.9-5.3-8.7-5.9-13.9zm48.9 13.8l-12.1-11.9c.4-.6.6-1.3.8-2h17.1c-.5 5.3-2.6 10.1-5.8 13.9zm5.9-19.8h-17c-.2-.7-.5-1.4-.8-2l12-11.8c3.1 3.9 5.2 8.6 5.8 13.8zm-111 17.7c.3-.1.6-.2.9-.4l8.7 8.5c-2.7 2-6 3.4-9.5 3.9v-12zm-6.9-.3c.3.1.6.3.9.4v12.1c-3.5-.5-6.8-1.9-9.5-3.9l8.6-8.6zm-13-20.5l8.6 8.5c-.1.3-.3.6-.4.8H60.8c.5-3.4 1.9-6.6 4-9.3zm13.8 3.9c-.3.1-.6.2-.8.4l-8.7-8.6c2.9-2.1 6.1-3.4 9.5-3.9v12.1zm7 .4c-.3-.1-.5-.2-.8-.3V72.6c3.5.5 6.8 1.9 9.5 3.9L85.6 85zm-3.9 11.1c-1.6 0-3.1-1.3-3.1-3 0-1.8 1.6-3 3.1-3 1.7 0 3 1.3 3 3s-1.4 3-3 3zm8.6-6c-.1-.3-.2-.6-.4-.8l8.6-8.5c1.6 2.1 2.8 4.5 3.5 7.1.2.7.3 1.5.4 2.2H90.3zm-29.5 6h12.3c.1.3.2.6.4.9l-8.7 8.5c-2.1-2.7-3.5-5.9-4-9.4zm37.8 9.4L89.9 97c.1-.3.2-.6.4-.8h12.3c-.6 3.4-2 6.6-4 9.3zm36.2-21.4h-27.5c-4.9-11.8-14.7-17.8-25.6-17.8-4.3 0-9.2 1.2-12.9 3.2l-7.2-17.1C75.2 45.2 97 41 120.8 41c23.8 0 45.6 4.2 59.2 11.4l-1.2 2.9c-2.9-.9-6.8-1.6-10.4-1.6-17.5 0-32.2 13.3-33.6 30.4zm9.7 26s0 .1.1.1c0 0 .1 0 .1.1 6.1 6 14.5 9.6 23.7 9.6s17.6-3.7 23.7-9.6l.1-.1.1-.1c6-6 9.7-14.2 9.7-23.3 0-8.9-3.6-17.2-9.8-23.3 0 0 0-.1-.1-.1 0 0-.1 0-.1-.1-2.2-2.2-4.8-4.1-7.7-5.6l2.3-5.5 9.1-21.6c1.4-3.3.7-7.1-1.7-9.6C179.7 6.2 146.8.9 120.8.9 94.9.9 62 6.2 47.5 21c-2.5 2.5-3.1 6.3-1.7 9.6L63.7 73c-3.3 2.8-6.1 6.6-7.7 11.1h-2.8c-6.8 0-13.6 1.1-20.1 3.2-9 2.9-22.6 7.3-30.9 10-1.6.5-2.5 2.2-1.9 3.8.5 1.6 2.2 2.4 3.9 1.9 8.3-2.7 21.9-7.1 30.9-10 5.9-1.9 12-2.9 18.2-2.9h1.4c-.1 1-.2 2-.2 3 0 14.8 12.2 26.8 27.3 26.8 7.5 0 14.3-3 19.2-7.8h.1s0-.1.1-.1c4.9-4.8 7.9-11.5 7.9-18.9 0-1-.1-2-.2-3H135c.6 7.7 4.2 14.7 9.5 20z" fill-rule="evenodd" clip-rule="evenodd" fill="#dff6e6" fill-opacity=".85"/></svg>