<svg width="20" height="20" viewBox="0 0 20 20" fill="none" xmlns="http://www.w3.org/2000/svg">
<path d="M19.3698 9.60884C19.3055 8.30428 19.2762 6.96826 18.9132 5.70345C18.643 4.7624 18.1039 3.89572 17.3256 3.2824C16.5697 2.68645 15.6757 2.317 14.7672 2.01324C14.557 1.94296 14.3618 1.85622 14.1743 1.74238C13.8979 1.54851 13.6462 1.32332 13.3741 1.12379C12.9953 0.84595 12.5888 0.610097 12.1176 0.525864C11.9372 0.493618 11.7523 0.486643 11.5711 0.456898C11.3714 0.424126 11.1733 0.382799 10.9757 0.339629C10.5777 0.252632 10.1819 0.154448 9.78042 0.083376C9.36231 0.0091454 8.93607 -0.0195465 8.51196 0.0137519C8.04238 0.0507356 7.5772 0.144972 7.11976 0.253027C6.74205 0.342262 6.35873 0.442683 5.99768 0.585354C5.53637 0.76764 5.11066 1.02942 4.72042 1.33082C4.33004 1.63235 3.96046 1.96204 3.59221 2.28897C3.24582 2.59642 2.90678 2.9123 2.58599 3.24594C1.91389 3.94521 1.32099 4.73555 0.912611 5.61434C0.498499 6.50537 0.239578 7.4734 0.107718 8.44353C-0.00747569 9.29086 -0.0357409 10.1581 0.0495881 11.0095C0.13425 11.855 0.323841 12.7034 0.639425 13.4948C0.807416 13.9165 1.01247 14.3271 1.24713 14.7164C1.26219 14.7414 1.27779 14.766 1.29312 14.7908C1.31192 14.8878 1.34966 14.9781 1.40672 15.0616C1.70884 15.6356 2.05575 16.1926 2.45746 16.7065C2.49653 16.7749 2.53653 16.8425 2.57879 16.909C2.76745 17.2054 3.02197 17.5156 3.34702 17.6783C3.37875 17.7076 3.41062 17.7367 3.44288 17.7655C3.87926 18.1548 4.3767 18.4952 4.90787 18.7456C5.53197 19.0398 6.21581 19.2191 6.89977 19.31C7.60134 19.4033 8.3133 19.4202 9.02046 19.4218C9.58763 19.4231 10.1553 19.4214 10.7222 19.4031C11.8535 19.3666 12.9979 19.2514 14.0803 18.9085C14.6342 18.7329 15.1729 18.4873 15.6633 18.1781C16.2125 17.8317 16.6989 17.3857 17.1446 16.9187C17.5948 16.4467 17.9965 15.9407 18.3553 15.3978C18.7141 14.8547 18.9826 14.2739 19.1751 13.6543C19.3823 12.9874 19.4318 12.2842 19.4362 11.5902C19.4403 10.9297 19.4022 10.2682 19.3698 9.60884ZM17.9572 12.1007C17.9248 12.5469 17.8516 12.9869 17.7176 13.4145C17.5484 13.8812 17.3167 14.3221 17.0443 14.7384C16.6031 15.3758 16.0769 15.9681 15.4971 16.486C15.1701 16.762 14.8183 17.0035 14.4385 17.2029C13.9537 17.4344 13.4408 17.5997 12.916 17.7172C11.6722 17.9649 10.394 17.97 9.12992 17.9721C8.71901 17.9728 8.30797 17.9698 7.89745 17.9504C7.27109 17.9106 6.64685 17.8243 6.04661 17.6397C5.68117 17.5102 5.33318 17.3421 5.00573 17.136C4.75601 16.9646 4.52163 16.7737 4.3011 16.5677C4.27671 16.5406 4.25044 16.5153 4.22204 16.4928C4.12458 16.3987 4.03005 16.3018 3.93806 16.2023C3.84553 16.0965 3.75593 15.9885 3.66927 15.8783C3.63527 15.8174 3.60247 15.7559 3.57034 15.6943C3.39302 15.3399 3.23343 14.9604 2.98797 14.6473C2.71612 14.3006 2.47453 13.9367 2.26854 13.5487C1.99762 12.9983 1.7971 12.4171 1.65951 11.8206C1.49978 11.0396 1.44538 10.2409 1.48151 9.44538C1.53724 8.60041 1.6899 7.75834 1.95229 6.95194C2.15095 6.39166 2.4096 5.85625 2.73612 5.35769C3.32942 4.50825 4.08391 3.78609 4.86307 3.10353C5.31345 2.71093 5.7737 2.31911 6.30393 2.03653C6.75991 1.82543 7.26442 1.69776 7.75533 1.59089C8.18424 1.50402 8.62382 1.43966 9.06206 1.45006C9.5567 1.49126 10.0444 1.62142 10.5265 1.72948C10.7942 1.78949 11.0628 1.84859 11.3341 1.89136C11.5493 1.92532 11.7667 1.93309 11.9775 1.98573C12.0991 2.0343 12.2148 2.09458 12.3263 2.16288C12.8231 2.50929 13.2533 2.94902 13.8128 3.20409C14.0818 3.32675 14.3745 3.40296 14.6519 3.50614C14.9159 3.60419 15.1771 3.71028 15.4319 3.82991C15.6669 3.94034 15.8961 4.06274 16.1156 4.20093C16.3584 4.36835 16.5845 4.55735 16.7871 4.77069C16.9602 4.97443 17.1102 5.19502 17.2376 5.42916C17.4055 5.77886 17.5231 6.14778 17.6108 6.52459C17.7485 7.2049 17.7968 7.89825 17.8387 8.58962C17.8853 9.35785 17.9239 10.1266 17.952 10.8958C17.9667 11.2973 17.9749 11.6993 17.9572 12.1007Z" fill="white"/>
<path d="M8.59077 9.59067C8.33452 9.93655 8.35852 10.4529 8.63383 10.7841C8.90902 11.1154 9.405 11.2415 9.81377 11.0977C9.9231 11.0592 10.0272 11.003 10.1126 10.9252C10.3025 10.7524 10.3836 10.4901 10.4043 10.236C10.42 10.0436 10.4024 9.83929 10.2953 9.67793C10.1724 9.49288 9.95523 9.39575 9.74844 9.30941L9.75258 9.3077C9.36593 9.11317 8.84702 9.24492 8.59077 9.59067Z" fill="white"/>
<path d="M8.91551 7.07525C8.84898 7.71727 9.02097 8.44075 9.54428 8.81638C9.54428 8.81638 9.7548 8.9863 10.5546 8.25584C10.6665 8.16673 10.7774 8.07684 10.8901 7.99353C11.8596 7.27781 13.1784 7.00813 14.3288 7.38034C15.0079 7.6 15.7 8.03354 16.3809 7.81993C16.4715 7.7915 16.5627 7.74859 16.6171 7.67173C16.6732 7.59237 16.6814 7.48984 16.6815 7.3931C16.6826 6.63527 16.3071 5.91402 15.7933 5.35097C14.7943 4.25633 13.1978 3.68921 11.7428 4.01732C10.2878 4.34531 9.06764 5.60959 8.91551 7.07525Z" fill="white"/>
<path d="M6.84019 8.39232C6.98085 8.56606 7.97026 9.29796 8.16092 8.97432C8.16092 8.97432 8.27718 8.8639 8.27158 7.88916C8.27398 7.69398 8.26745 7.49866 8.25145 7.304C8.14199 5.97549 8.74102 4.60959 9.79737 3.77911C9.97163 3.64223 10.161 3.51509 10.2836 3.33162C10.4063 3.14815 10.4439 2.8865 10.3031 2.71606C10.1344 2.51179 9.81577 2.53496 9.55445 2.58905C8.68756 2.76818 7.8332 3.09287 7.15977 3.66079C6.48634 4.2287 6.01196 5.0638 6.01903 5.93811C6.02356 6.50234 6.22169 7.04578 6.42301 7.57395C6.53234 7.86087 6.64633 8.15226 6.84019 8.39232Z" fill="white"/>
<path d="M15.3907 8.6632C14.9667 8.42616 14.483 8.31653 14.0033 8.23322C13.4688 8.1403 12.9192 8.07646 12.3851 8.17149C11.851 8.26651 11.3286 8.54014 11.0432 8.99566C10.9516 9.14188 10.8889 9.31548 10.882 9.48816C10.882 9.48816 10.839 9.78205 11.0658 9.94881C11.0777 9.96171 11.1019 9.97934 11.1517 9.99777C11.2149 10.0269 11.2911 10.0487 11.3887 10.057C11.559 10.0903 11.8103 10.1146 12.1803 10.1054C12.3571 10.1212 12.5607 10.1377 12.7971 10.1548C13.2312 10.2132 13.6648 10.2846 14.0742 10.4359C14.5571 10.6145 15.0104 10.917 15.27 11.3568C15.6485 11.9983 15.5612 12.8159 15.8677 13.4938C15.9213 13.6123 16.0038 13.7381 16.1336 13.7587C16.3311 13.79 16.4638 13.5681 16.529 13.3813C16.8189 12.551 16.9722 11.6551 16.8163 10.7904C16.6605 9.92564 16.165 9.09582 15.3907 8.6632Z" fill="white"/>
<path d="M6.09795 11.0133C6.46646 11.0688 6.86791 11.0977 7.18816 10.9096C7.45188 10.7548 7.60427 10.3969 7.50081 10.1324C7.50081 10.1324 7.48735 9.93077 6.03809 8.79428C6.03809 8.79428 5.36119 8.28269 5.18613 6.33901C5.16386 6.12553 5.13613 5.91456 5.09213 5.70924C5.04987 5.51234 4.97934 5.30163 4.80735 5.1937C4.47203 4.98365 4.05219 5.30334 3.82767 5.62672C3.32156 6.35533 3.05264 7.24176 3.06984 8.12502C3.0805 8.67148 3.20383 9.22795 3.50995 9.68334C4.06405 10.5075 5.1076 10.8637 6.09795 11.0133Z" fill="white"/>
<path d="M9.30285 12.9971C9.41204 12.7065 9.48244 12.3871 9.40191 12.0877C9.32138 11.7882 9.0534 11.5211 8.73955 11.5242L8.81034 11.5638C8.24197 11.3286 7.63814 11.747 7.05963 11.9567C6.02942 12.3298 4.82841 12.0051 3.98379 11.3135C3.59341 10.9937 3.24316 10.5887 2.75665 10.4467C2.66079 10.4187 2.55186 10.4033 2.46533 10.4525C2.3652 10.5092 2.32774 10.6323 2.30974 10.7449C2.23708 11.2002 2.33974 11.6661 2.492 12.1017C2.81505 13.0262 3.36649 13.872 4.08512 14.545C4.34577 14.7893 4.63296 15.0138 4.96534 15.1487C5.25906 15.2679 5.57931 15.313 5.89676 15.3156C7.36588 15.3276 8.79208 14.3568 9.30285 12.9971Z" fill="white"/>
<path d="M11.1388 11.6004C10.8852 11.4608 10.544 11.4978 10.3271 11.6882C10.1572 11.8373 10.0737 12.0723 10.0985 12.2944L10.0643 12.1594C10.1435 12.6902 10.0732 13.2419 9.86308 13.7368C9.55483 14.4633 8.96899 15.0366 8.36942 15.5564C8.04944 15.8337 7.68733 16.1944 7.78372 16.6038C7.89065 17.058 8.48582 17.2013 8.95299 17.1332C9.93588 16.9898 10.7896 16.3017 11.2506 15.4329C11.7118 14.5641 11.8083 13.5373 11.6563 12.5681C11.5977 12.1944 11.4733 11.7846 11.1388 11.6004Z" fill="white"/>
<path d="M12.9301 11.0517C12.7453 10.9662 12.5496 10.8816 12.3459 10.8951C12.1423 10.9087 11.9327 11.0552 11.9232 11.2564C11.9206 11.3129 11.9335 11.3662 11.9555 11.417C11.9648 11.4383 11.9758 11.459 11.988 11.4792C12.0578 11.6164 12.2255 11.9676 12.3328 12.3664C12.5703 13.3993 12.484 14.509 12.2841 15.5611C12.2544 15.7181 12.2225 15.8828 12.2713 16.0351C12.3693 16.3416 12.7705 16.4687 13.0814 16.373C13.3924 16.2775 13.6246 16.0239 13.8193 15.766C14.2662 15.1744 14.6071 14.4858 14.6812 13.7513C14.7555 13.0169 14.5367 12.2344 14.0026 11.718C13.6994 11.4246 13.3144 11.2298 12.9301 11.0517Z" fill="white"/>
</svg>
